<?xml version="1.0" standalone="no"?>
<!DOCTYPE svg PUBLIC "-//W3C//DTD SVG 20010904//EN"
 "http://www.w3.org/TR/2001/REC-SVG-20010904/DTD/svg10.dtd">
<svg version="1.0" xmlns="http://www.w3.org/2000/svg"
 width="840.000000pt" height="478.000000pt" viewBox="0 0 840.000000 478.000000"
 preserveAspectRatio="xMidYMid meet">

<g transform="translate(0.000000,478.000000) scale(0.100000,-0.100000)"
fill="#000000" stroke="none">
<path d="M3975 4370 c-22 -5 -87 -16 -144 -25 -58 -10 -114 -21 -125 -25 -12
-4 -41 -13 -66 -20 -157 -43 -366 -139 -514 -234 -425 -274 -726 -692 -856
-1188 -49 -188 -70 -450 -51 -653 64 -701 478 -1304 1106 -1610 123 -61 310
-129 420 -153 813 -182 1643 148 2100 835 65 97 167 287 190 353 8 25 19 54
24 65 60 139 109 396 118 620 5 135 -13 359 -37 455 -5 19 -14 58 -21 85 -58
249 -199 536 -367 750 -84 107 -256 273 -368 357 -264 196 -564 323 -886 375
-113 19 -456 27 -523 13z m-177 -1307 c3 -263 0 -256 77 -203 75 51 186 83
295 83 117 0 183 -14 277 -61 121 -59 230 -173 282 -295 23 -53 51 -185 51
-237 0 -56 -29 -188 -53 -240 -34 -74 -93 -155 -149 -204 -62 -55 -189 -119
-269 -136 -82 -18 -250 -9 -323 18 -172 62 -305 196 -368 369 -20 57 -21 71
-20 593 1 294 2 539 2 543 0 4 44 6 98 5 l97 -3 3 -232z m-765 -128 c231 -41
419 -220 472 -450 12 -51 15 -127 13 -367 l-3 -303 -83 -3 c-91 -3 -112 5
-112 44 0 12 -3 25 -8 28 -4 2 -34 -13 -67 -35 -124 -82 -331 -114 -473 -73
-217 63 -382 237 -427 449 -72 341 164 674 505 715 94 11 97 11 183 -5z m2567
-7 c137 -34 287 -143 359 -262 38 -64 84 -183 76 -197 -4 -5 -51 -9 -105 -9
l-99 0 -24 53 c-109 238 -414 301 -610 126 -84 -74 -121 -156 -125 -274 -3
-74 0 -101 18 -148 66 -177 266 -288 441 -247 113 27 187 79 255 181 l46 70
97 -3 96 -3 -2 -30 c-4 -50 -71 -171 -129 -235 -120 -129 -261 -190 -437 -190
-179 0 -321 61 -441 190 -154 168 -198 412 -110 630 39 98 134 212 224 270
137 88 312 117 470 78z"/>
<path d="M4065 2721 c-72 -24 -117 -54 -174 -116 -130 -143 -130 -369 0 -510
157 -171 402 -179 563 -19 27 28 62 77 79 114 28 58 31 75 32 160 0 105 -8
134 -63 218 -91 140 -282 207 -437 153z"/>
<path d="M2786 2713 c-86 -33 -169 -110 -211 -197 -37 -77 -46 -199 -21 -281
44 -139 154 -235 304 -266 252 -52 493 181 452 438 -40 249 -289 395 -524 306z"/>
</g>
</svg>
